<svg xmlns="http://www.w3.org/2000/svg" width="1200" height="900" viewBox="0 0 1200 900" role="img" aria-label="Sirio - about">
  <defs>
    <linearGradient id="bg2" x1="0" y1="0" x2="1" y2="1">
      <stop offset="0" stop-color="#0f0f17"/>
      <stop offset="1" stop-color="#1b1022"/>
    </linearGradient>
    <linearGradient id="acc2" x1="0" y1="0" x2="1" y2="0">
      <stop offset="0" stop-color="#ff00aa"/>
      <stop offset="1" stop-color="#22c55e"/>
    </linearGradient>
    <filter id="shadow" x="-20%" y="-20%" width="140%" height="140%">
      <feGaussianBlur stdDeviation="14"/>
    </filter>
  </defs>
  <rect width="1200" height="900" fill="url(#bg2)"/>
  <g opacity="0.9" filter="url(#shadow)">
    <circle cx="340" cy="380" r="210" fill="#ff00aa" opacity="0.16"/>
    <circle cx="820" cy="520" r="260" fill="#22c55e" opacity="0.10"/>
  </g>

  <g fill="none" stroke="#ffffff" stroke-opacity="0.18" stroke-width="2">
    <path d="M120 680 C 260 560, 380 760, 560 650 S 900 520, 1080 660"/>
    <path d="M140 720 C 280 600, 400 800, 580 690 S 920 560, 1100 700"/>
  </g>

  <g transform="translate(250 240)">
    <rect x="0" y="0" width="700" height="420" rx="22" fill="#0b0b12" opacity="0.75" stroke="#ffffff" stroke-opacity="0.14"/>
    <rect x="36" y="40" width="340" height="12" rx="6" fill="url(#acc2)" opacity="0.9"/>
    <rect x="36" y="82" width="520" height="10" rx="5" fill="#ffffff" opacity="0.14"/>
    <rect x="36" y="112" width="470" height="10" rx="5" fill="#ffffff" opacity="0.12"/>
    <rect x="36" y="142" width="440" height="10" rx="5" fill="#ffffff" opacity="0.10"/>

    <g transform="translate(36 210)" opacity="0.95">
      <rect x="0" y="0" width="200" height="140" rx="16" fill="#111129" stroke="#ffffff" stroke-opacity="0.10"/>
      <rect x="240" y="0" width="200" height="140" rx="16" fill="#111129" stroke="#ffffff" stroke-opacity="0.10"/>
      <rect x="480" y="0" width="148" height="140" rx="16" fill="#111129" stroke="#ffffff" stroke-opacity="0.10"/>
      <rect x="22" y="22" width="80" height="8" rx="4" fill="#ffffff" opacity="0.20"/>
      <rect x="262" y="22" width="90" height="8" rx="4" fill="#ffffff" opacity="0.20"/>
      <rect x="502" y="22" width="70" height="8" rx="4" fill="#ffffff" opacity="0.20"/>
    </g>
  </g>
</svg>
